<mxfile host="app.diagrams.net" modified="2022-01-02T12:30:26.892Z" agent="5.0 (Windows NT 10.0; WOW64) AppleWebKit/537.36 (KHTML, like Gecko) Chrome/86.0.4240.198 Safari/537.36" etag="G1e53h9_IYOqHxWGhX_A" version="16.1.2" type="github">
  <diagram id="rGSmb_pIZY3zPX9j6uLZ" name="Page-1">
    <mxGraphModel dx="1593" dy="740" grid="0" gridSize="10" guides="1" tooltips="1" connect="0" arrows="1" fold="1" page="1" pageScale="1" pageWidth="827" pageHeight="1169" math="0" shadow="0">
      <root>
        <mxCell id="0" />
        <mxCell id="1" parent="0" />
        <mxCell id="xCQ0nxMYJF8ky7RXC2G_-2" value="" style="rounded=0;whiteSpace=wrap;html=1;gradientDirection=north;gradientColor=#97d077;shadow=1;spacingTop=0;perimeterSpacing=20;portConstraintRotation=0;fillColor=#d5e8d4;strokeColor=#82b366;" parent="1" vertex="1">
          <mxGeometry x="146" y="346" width="436" height="67" as="geometry" />
        </mxCell>
        <mxCell id="xCQ0nxMYJF8ky7RXC2G_-3" value="&lt;font face=&quot;宋体&quot;&gt;书籍管理员页面&lt;/font&gt;" style="rounded=1;whiteSpace=wrap;html=1;shadow=1;gradientDirection=north;fillColor=#f5f5f5;fontColor=#333333;strokeColor=#666666;" parent="1" vertex="1">
          <mxGeometry x="151" y="356.5" width="95" height="45" as="geometry" />
        </mxCell>
        <mxCell id="xCQ0nxMYJF8ky7RXC2G_-4" value="&lt;font face=&quot;宋体&quot;&gt;系统管理层页面&lt;/font&gt;" style="rounded=1;whiteSpace=wrap;html=1;shadow=1;gradientDirection=north;fillColor=#f5f5f5;fontColor=#333333;strokeColor=#666666;" parent="1" vertex="1">
          <mxGeometry x="366" y="356.5" width="95" height="45" as="geometry" />
        </mxCell>
        <mxCell id="xCQ0nxMYJF8ky7RXC2G_-5" value="&lt;font face=&quot;宋体&quot;&gt;借阅者页面&lt;/font&gt;" style="rounded=1;whiteSpace=wrap;html=1;shadow=1;gradientDirection=north;fillColor=#f5f5f5;fontColor=#333333;strokeColor=#666666;" parent="1" vertex="1">
          <mxGeometry x="259" y="357" width="95" height="45" as="geometry" />
        </mxCell>
        <mxCell id="xCQ0nxMYJF8ky7RXC2G_-6" value="&lt;font face=&quot;宋体&quot;&gt;首页页面&lt;/font&gt;" style="rounded=1;whiteSpace=wrap;html=1;shadow=1;gradientDirection=north;fillColor=#f5f5f5;fontColor=#333333;strokeColor=#666666;" parent="1" vertex="1">
          <mxGeometry x="478" y="356.5" width="95" height="45" as="geometry" />
        </mxCell>
        <mxCell id="xCQ0nxMYJF8ky7RXC2G_-7" value="" style="rounded=0;whiteSpace=wrap;html=1;gradientDirection=north;gradientColor=#ea6b66;shadow=1;spacingTop=0;perimeterSpacing=20;portConstraintRotation=0;fillColor=#f8cecc;strokeColor=#b85450;" parent="1" vertex="1">
          <mxGeometry x="146" y="442" width="443" height="121" as="geometry" />
        </mxCell>
        <mxCell id="xCQ0nxMYJF8ky7RXC2G_-8" value="&lt;h4&gt;&lt;font face=&quot;楷体&quot; style=&quot;font-size: 20px&quot;&gt;表现层&lt;/font&gt;&lt;/h4&gt;" style="text;html=1;strokeColor=none;fillColor=none;align=center;verticalAlign=middle;whiteSpace=wrap;rounded=0;shadow=1;fontFamily=Times New Roman;" parent="1" vertex="1">
          <mxGeometry x="35" y="356.5" width="90" height="58.5" as="geometry" />
        </mxCell>
        <mxCell id="xCQ0nxMYJF8ky7RXC2G_-9" value="&lt;h4&gt;&lt;font face=&quot;楷体&quot; style=&quot;font-size: 20px&quot;&gt;业务逻辑层&lt;/font&gt;&lt;/h4&gt;" style="text;html=1;strokeColor=none;fillColor=none;align=center;verticalAlign=middle;whiteSpace=wrap;rounded=0;shadow=1;fontFamily=Times New Roman;" parent="1" vertex="1">
          <mxGeometry x="16" y="442" width="109" height="58.5" as="geometry" />
        </mxCell>
        <mxCell id="xCQ0nxMYJF8ky7RXC2G_-11" value="&lt;h4&gt;&lt;font face=&quot;楷体&quot; style=&quot;font-size: 20px&quot;&gt;数据访问层&lt;/font&gt;&lt;/h4&gt;" style="text;html=1;strokeColor=none;fillColor=none;align=center;verticalAlign=middle;whiteSpace=wrap;rounded=0;shadow=1;fontFamily=Times New Roman;" parent="1" vertex="1">
          <mxGeometry x="16" y="627.75" width="109.5" height="58.5" as="geometry" />
        </mxCell>
        <mxCell id="xCQ0nxMYJF8ky7RXC2G_-13" value="" style="rounded=0;whiteSpace=wrap;html=1;gradientDirection=north;gradientColor=#ffa500;shadow=1;spacingTop=0;perimeterSpacing=20;portConstraintRotation=0;fillColor=#ffcd28;strokeColor=#d79b00;" parent="1" vertex="1">
          <mxGeometry x="146.5" y="606" width="436" height="102" as="geometry" />
        </mxCell>
        <mxCell id="xCQ0nxMYJF8ky7RXC2G_-14" value="" style="rounded=0;whiteSpace=wrap;html=1;gradientDirection=north;shadow=1;spacingTop=0;perimeterSpacing=20;portConstraintRotation=0;fillColor=#cdeb8b;strokeColor=#36393d;rotation=90;gradientColor=#CFFFC9;" parent="1" vertex="1">
          <mxGeometry x="422" y="512" width="436" height="67" as="geometry" />
        </mxCell>
        <mxCell id="xCQ0nxMYJF8ky7RXC2G_-15" value="" style="rounded=0;whiteSpace=wrap;html=1;gradientDirection=north;shadow=1;spacingTop=0;perimeterSpacing=20;portConstraintRotation=0;fillColor=#cdeb8b;strokeColor=#36393d;rotation=90;gradientColor=#ADFFA1;" parent="1" vertex="1">
          <mxGeometry x="515" y="512" width="436" height="67" as="geometry" />
        </mxCell>
        <mxCell id="xCQ0nxMYJF8ky7RXC2G_-16" value="&lt;font face=&quot;宋体&quot;&gt;系统信息安全体系&lt;/font&gt;" style="text;strokeColor=none;fillColor=none;html=1;fontSize=24;fontStyle=1;verticalAlign=middle;align=center;rounded=0;shadow=1;fontFamily=Courier New;rotation=90;" parent="1" vertex="1">
          <mxGeometry x="482.75" y="551" width="314.5" height="40" as="geometry" />
        </mxCell>
        <mxCell id="xCQ0nxMYJF8ky7RXC2G_-17" value="&lt;font face=&quot;宋体&quot;&gt;图书管理系统标准和规范体系&lt;/font&gt;" style="text;strokeColor=none;fillColor=none;html=1;fontSize=24;fontStyle=1;verticalAlign=middle;align=center;rounded=0;shadow=1;fontFamily=Courier New;rotation=90;" parent="1" vertex="1">
          <mxGeometry x="575.75" y="535" width="314.5" height="40" as="geometry" />
        </mxCell>
        <mxCell id="xCQ0nxMYJF8ky7RXC2G_-18" value="&lt;font face=&quot;宋体&quot;&gt;读者、管理员登录(login)&lt;/font&gt;" style="rounded=1;whiteSpace=wrap;html=1;shadow=1;gradientDirection=north;fillColor=#f5f5f5;fontColor=#333333;strokeColor=#666666;" parent="1" vertex="1">
          <mxGeometry x="155" y="447" width="95" height="42" as="geometry" />
        </mxCell>
        <mxCell id="xCQ0nxMYJF8ky7RXC2G_-19" value="&lt;h4&gt;&lt;font face=&quot;楷体&quot; style=&quot;font-size: 20px&quot;&gt;基础设施平台&lt;/font&gt;&lt;/h4&gt;" style="text;html=1;strokeColor=none;fillColor=none;align=center;verticalAlign=middle;whiteSpace=wrap;rounded=0;shadow=1;fontFamily=Times New Roman;" parent="1" vertex="1">
          <mxGeometry x="22" y="682" width="109.5" height="58.5" as="geometry" />
        </mxCell>
        <mxCell id="xCQ0nxMYJF8ky7RXC2G_-20" value="&lt;font face=&quot;宋体&quot;&gt;书籍模糊查询&lt;br&gt;(Admin)&lt;br&gt;&lt;/font&gt;" style="rounded=1;whiteSpace=wrap;html=1;shadow=1;gradientDirection=north;fillColor=#f5f5f5;fontColor=#333333;strokeColor=#666666;" parent="1" vertex="1">
          <mxGeometry x="265" y="447" width="95" height="42" as="geometry" />
        </mxCell>
        <mxCell id="xCQ0nxMYJF8ky7RXC2G_-21" value="&lt;font face=&quot;宋体&quot;&gt;书籍管理（Admin）&lt;/font&gt;" style="rounded=1;whiteSpace=wrap;html=1;shadow=1;gradientDirection=north;fillColor=#f5f5f5;fontColor=#333333;strokeColor=#666666;" parent="1" vertex="1">
          <mxGeometry x="375" y="447" width="95" height="42" as="geometry" />
        </mxCell>
        <mxCell id="xCQ0nxMYJF8ky7RXC2G_-22" value="&lt;font face=&quot;宋体&quot;&gt;借阅书籍&lt;br&gt;(DateTime)&lt;br&gt;&lt;/font&gt;" style="rounded=1;whiteSpace=wrap;html=1;shadow=1;gradientDirection=north;fillColor=#f5f5f5;fontColor=#333333;strokeColor=#666666;" parent="1" vertex="1">
          <mxGeometry x="375" y="505" width="95" height="42" as="geometry" />
        </mxCell>
        <mxCell id="xCQ0nxMYJF8ky7RXC2G_-23" value="&lt;font face=&quot;宋体&quot;&gt;查询借阅、违约信息(CompareDate)&lt;/font&gt;" style="rounded=1;whiteSpace=wrap;html=1;shadow=1;gradientDirection=north;fillColor=#f5f5f5;fontColor=#333333;strokeColor=#666666;" parent="1" vertex="1">
          <mxGeometry x="155" y="500.5" width="95" height="42" as="geometry" />
        </mxCell>
        <mxCell id="xCQ0nxMYJF8ky7RXC2G_-26" value="&lt;font face=&quot;宋体&quot;&gt;工具库&lt;br&gt;(util)&lt;br&gt;&lt;/font&gt;" style="rounded=1;whiteSpace=wrap;html=1;shadow=1;gradientDirection=north;fillColor=#f5f5f5;fontColor=#333333;strokeColor=#666666;" parent="1" vertex="1">
          <mxGeometry x="265" y="503" width="95" height="42" as="geometry" />
        </mxCell>
        <mxCell id="VZruGt7_fquRSm-Is5DC-7" value="" style="rounded=0;whiteSpace=wrap;html=1;gradientDirection=north;shadow=1;spacingTop=0;perimeterSpacing=20;portConstraintRotation=0;fillColor=#dae8fc;strokeColor=#6c8ebf;gradientColor=#54FF6B;" parent="1" vertex="1">
          <mxGeometry x="146.5" y="746" width="436" height="54" as="geometry" />
        </mxCell>
        <mxCell id="VZruGt7_fquRSm-Is5DC-9" value="" style="html=1;whiteSpace=wrap;shape=isoCube2;backgroundOutline=1;isoAngle=15;sketch=0;gradientColor=#54FF6B;" parent="1" vertex="1">
          <mxGeometry x="257.5" y="638" width="63" height="64" as="geometry" />
        </mxCell>
        <mxCell id="VZruGt7_fquRSm-Is5DC-10" value="&lt;font face=&quot;宋体&quot; style=&quot;font-size: 12px&quot;&gt;基础数据&lt;/font&gt;" style="text;strokeColor=none;fillColor=none;html=1;fontSize=24;fontStyle=1;verticalAlign=middle;align=center;rounded=0;shadow=1;fontFamily=Courier New;rotation=0;direction=east;" parent="1" vertex="1">
          <mxGeometry x="222" y="642" width="134" height="16" as="geometry" />
        </mxCell>
        <mxCell id="VZruGt7_fquRSm-Is5DC-11" value="&lt;font face=&quot;宋体&quot;&gt;图书信息库&lt;/font&gt;" style="rounded=1;whiteSpace=wrap;html=1;shadow=1;gradientDirection=north;fillColor=#f5f5f5;fontColor=#333333;strokeColor=#666666;" parent="1" vertex="1">
          <mxGeometry x="155.5" y="610" width="87" height="26" as="geometry" />
        </mxCell>
        <mxCell id="VZruGt7_fquRSm-Is5DC-12" value="&lt;font face=&quot;宋体&quot;&gt;管理者信息库&lt;/font&gt;" style="rounded=1;whiteSpace=wrap;html=1;shadow=1;gradientDirection=north;fillColor=#f5f5f5;fontColor=#333333;strokeColor=#666666;" parent="1" vertex="1">
          <mxGeometry x="155.5" y="644" width="87" height="26" as="geometry" />
        </mxCell>
        <mxCell id="VZruGt7_fquRSm-Is5DC-13" value="&lt;font face=&quot;宋体&quot;&gt;用户信息库&lt;/font&gt;" style="rounded=1;whiteSpace=wrap;html=1;shadow=1;gradientDirection=north;fillColor=#f5f5f5;fontColor=#333333;strokeColor=#666666;" parent="1" vertex="1">
          <mxGeometry x="155.5" y="676" width="87" height="26" as="geometry" />
        </mxCell>
        <mxCell id="VZruGt7_fquRSm-Is5DC-14" value="&lt;font face=&quot;宋体&quot;&gt;借阅信息库&lt;/font&gt;" style="rounded=1;whiteSpace=wrap;html=1;shadow=1;gradientDirection=north;fillColor=#f5f5f5;fontColor=#333333;strokeColor=#666666;" parent="1" vertex="1">
          <mxGeometry x="250.5" y="612" width="87" height="26" as="geometry" />
        </mxCell>
        <mxCell id="VZruGt7_fquRSm-Is5DC-15" value="" style="verticalLabelPosition=bottom;verticalAlign=top;html=1;shape=mxgraph.basic.cone;sketch=0;fontSize=12;gradientColor=#54FF6B;" parent="1" vertex="1">
          <mxGeometry x="491.5" y="638" width="68" height="53" as="geometry" />
        </mxCell>
        <mxCell id="VZruGt7_fquRSm-Is5DC-17" value="&lt;font face=&quot;宋体&quot; style=&quot;font-size: 12px&quot;&gt;业务数据&lt;/font&gt;" style="text;strokeColor=none;fillColor=none;html=1;fontSize=24;fontStyle=1;verticalAlign=middle;align=center;rounded=0;shadow=1;fontFamily=Courier New;rotation=0;direction=east;" parent="1" vertex="1">
          <mxGeometry x="462" y="646" width="134" height="16" as="geometry" />
        </mxCell>
        <mxCell id="VZruGt7_fquRSm-Is5DC-18" value="&lt;font face=&quot;宋体&quot;&gt;书籍类别排序库&lt;/font&gt;" style="rounded=1;whiteSpace=wrap;html=1;shadow=1;gradientDirection=north;fillColor=#f5f5f5;fontColor=#333333;strokeColor=#666666;" parent="1" vertex="1">
          <mxGeometry x="402.5" y="612" width="87" height="26" as="geometry" />
        </mxCell>
        <mxCell id="VZruGt7_fquRSm-Is5DC-19" value="&lt;font face=&quot;宋体&quot;&gt;图书馆表&lt;/font&gt;" style="rounded=1;whiteSpace=wrap;html=1;shadow=1;gradientDirection=north;fillColor=#f5f5f5;fontColor=#333333;strokeColor=#666666;" parent="1" vertex="1">
          <mxGeometry x="404.5" y="665" width="87" height="26" as="geometry" />
        </mxCell>
        <mxCell id="VZruGt7_fquRSm-Is5DC-20" value="&lt;font face=&quot;宋体&quot;&gt;数据库服务器&lt;/font&gt;" style="rounded=1;whiteSpace=wrap;html=1;shadow=1;gradientDirection=north;fillColor=#f5f5f5;fontColor=#333333;strokeColor=#666666;" parent="1" vertex="1">
          <mxGeometry x="185.5" y="760" width="87" height="26" as="geometry" />
        </mxCell>
        <mxCell id="VZruGt7_fquRSm-Is5DC-21" value="&lt;font face=&quot;宋体&quot;&gt;码云代码托管&lt;/font&gt;" style="rounded=1;whiteSpace=wrap;html=1;shadow=1;gradientDirection=north;fillColor=#f5f5f5;fontColor=#333333;strokeColor=#666666;" parent="1" vertex="1">
          <mxGeometry x="444.5" y="760" width="87" height="26" as="geometry" />
        </mxCell>
        <mxCell id="Mgyk64NdSJGYaR96-P3A-1" value="session/cookie&lt;br&gt;验证权限信息" style="shape=process;whiteSpace=wrap;html=1;backgroundOutline=1;rounded=1;shadow=1;fillColor=#fff2cc;strokeColor=#d6b656;" vertex="1" parent="1">
          <mxGeometry x="474" y="447" width="110" height="47" as="geometry" />
        </mxCell>
        <mxCell id="Mgyk64NdSJGYaR96-P3A-4" value="Request/Response" style="shape=process;whiteSpace=wrap;html=1;backgroundOutline=1;rounded=1;shadow=1;fillColor=#fff2cc;strokeColor=#d6b656;" vertex="1" parent="1">
          <mxGeometry x="474" y="504" width="110" height="47" as="geometry" />
        </mxCell>
        <mxCell id="Mgyk64NdSJGYaR96-P3A-5" value="" style="shape=flexArrow;endArrow=classic;startArrow=classic;html=1;rounded=0;entryX=0.861;entryY=0.876;entryDx=0;entryDy=0;entryPerimeter=0;" edge="1" parent="1" target="xCQ0nxMYJF8ky7RXC2G_-7">
          <mxGeometry width="100" height="100" relative="1" as="geometry">
            <mxPoint x="542" y="608" as="sourcePoint" />
            <mxPoint x="471" y="572" as="targetPoint" />
          </mxGeometry>
        </mxCell>
        <mxCell id="Mgyk64NdSJGYaR96-P3A-7" value="" style="shape=flexArrow;endArrow=classic;startArrow=classic;html=1;rounded=0;endWidth=18;endSize=4;width=14;startSize=4;" edge="1" parent="1">
          <mxGeometry width="100" height="100" relative="1" as="geometry">
            <mxPoint x="531.5" y="444" as="sourcePoint" />
            <mxPoint x="531.5" y="413" as="targetPoint" />
          </mxGeometry>
        </mxCell>
        <mxCell id="Mgyk64NdSJGYaR96-P3A-13" value="" style="edgeStyle=orthogonalEdgeStyle;rounded=0;orthogonalLoop=1;jettySize=auto;html=1;" edge="1" parent="1" source="Mgyk64NdSJGYaR96-P3A-8" target="Mgyk64NdSJGYaR96-P3A-9">
          <mxGeometry relative="1" as="geometry" />
        </mxCell>
        <mxCell id="Mgyk64NdSJGYaR96-P3A-8" value="登录.html" style="whiteSpace=wrap;html=1;aspect=fixed;rounded=1;shadow=1;" vertex="1" parent="1">
          <mxGeometry x="75.5" y="1004" width="80" height="80" as="geometry" />
        </mxCell>
        <mxCell id="Mgyk64NdSJGYaR96-P3A-15" style="edgeStyle=orthogonalEdgeStyle;rounded=0;orthogonalLoop=1;jettySize=auto;html=1;" edge="1" parent="1" source="Mgyk64NdSJGYaR96-P3A-9" target="Mgyk64NdSJGYaR96-P3A-10">
          <mxGeometry relative="1" as="geometry" />
        </mxCell>
        <mxCell id="Mgyk64NdSJGYaR96-P3A-9" value="录入项检验&lt;br&gt;（非空）" style="rhombus;whiteSpace=wrap;html=1;rounded=1;shadow=1;" vertex="1" parent="1">
          <mxGeometry x="213" y="1004" width="80" height="80" as="geometry" />
        </mxCell>
        <mxCell id="Mgyk64NdSJGYaR96-P3A-16" style="edgeStyle=orthogonalEdgeStyle;rounded=0;orthogonalLoop=1;jettySize=auto;html=1;" edge="1" parent="1" source="Mgyk64NdSJGYaR96-P3A-10" target="Mgyk64NdSJGYaR96-P3A-11">
          <mxGeometry relative="1" as="geometry" />
        </mxCell>
        <mxCell id="Mgyk64NdSJGYaR96-P3A-18" value="执行数据库操作" style="edgeLabel;html=1;align=center;verticalAlign=middle;resizable=0;points=[];" vertex="1" connectable="0" parent="Mgyk64NdSJGYaR96-P3A-16">
          <mxGeometry x="-0.2115" y="-1" relative="1" as="geometry">
            <mxPoint x="6" y="-1" as="offset" />
          </mxGeometry>
        </mxCell>
        <mxCell id="Mgyk64NdSJGYaR96-P3A-22" style="edgeStyle=orthogonalEdgeStyle;rounded=0;orthogonalLoop=1;jettySize=auto;html=1;entryX=0.531;entryY=1.025;entryDx=0;entryDy=0;entryPerimeter=0;" edge="1" parent="1" source="Mgyk64NdSJGYaR96-P3A-10" target="Mgyk64NdSJGYaR96-P3A-8">
          <mxGeometry relative="1" as="geometry">
            <mxPoint x="120" y="1141" as="targetPoint" />
            <Array as="points">
              <mxPoint x="396" y="1141" />
              <mxPoint x="118" y="1141" />
            </Array>
          </mxGeometry>
        </mxCell>
        <mxCell id="Mgyk64NdSJGYaR96-P3A-23" value="失败" style="edgeLabel;html=1;align=center;verticalAlign=middle;resizable=0;points=[];" vertex="1" connectable="0" parent="Mgyk64NdSJGYaR96-P3A-22">
          <mxGeometry x="0.0667" y="3" relative="1" as="geometry">
            <mxPoint as="offset" />
          </mxGeometry>
        </mxCell>
        <mxCell id="Mgyk64NdSJGYaR96-P3A-10" value="登录处理.java&lt;br&gt;（servlet）" style="whiteSpace=wrap;html=1;aspect=fixed;rounded=1;shadow=1;" vertex="1" parent="1">
          <mxGeometry x="356" y="1004" width="80" height="80" as="geometry" />
        </mxCell>
        <mxCell id="Mgyk64NdSJGYaR96-P3A-17" style="edgeStyle=orthogonalEdgeStyle;rounded=0;orthogonalLoop=1;jettySize=auto;html=1;" edge="1" parent="1" target="Mgyk64NdSJGYaR96-P3A-12">
          <mxGeometry relative="1" as="geometry">
            <mxPoint x="628" y="1044" as="sourcePoint" />
            <Array as="points">
              <mxPoint x="628" y="1044" />
              <mxPoint x="628" y="1044" />
            </Array>
          </mxGeometry>
        </mxCell>
        <mxCell id="Mgyk64NdSJGYaR96-P3A-20" style="edgeStyle=orthogonalEdgeStyle;rounded=0;orthogonalLoop=1;jettySize=auto;html=1;entryX=0.481;entryY=-0.025;entryDx=0;entryDy=0;entryPerimeter=0;" edge="1" parent="1" source="Mgyk64NdSJGYaR96-P3A-11" target="Mgyk64NdSJGYaR96-P3A-8">
          <mxGeometry relative="1" as="geometry">
            <mxPoint x="110" y="963" as="targetPoint" />
            <Array as="points">
              <mxPoint x="580" y="980" />
              <mxPoint x="114" y="980" />
            </Array>
          </mxGeometry>
        </mxCell>
        <mxCell id="Mgyk64NdSJGYaR96-P3A-21" value="失败" style="edgeLabel;html=1;align=center;verticalAlign=middle;resizable=0;points=[];" vertex="1" connectable="0" parent="Mgyk64NdSJGYaR96-P3A-20">
          <mxGeometry x="-0.1131" y="-1" relative="1" as="geometry">
            <mxPoint as="offset" />
          </mxGeometry>
        </mxCell>
        <mxCell id="Mgyk64NdSJGYaR96-P3A-26" value="" style="edgeStyle=orthogonalEdgeStyle;rounded=0;orthogonalLoop=1;jettySize=auto;html=1;" edge="1" parent="1" source="Mgyk64NdSJGYaR96-P3A-11" target="Mgyk64NdSJGYaR96-P3A-12">
          <mxGeometry relative="1" as="geometry">
            <Array as="points">
              <mxPoint x="641" y="1044" />
              <mxPoint x="641" y="1044" />
            </Array>
          </mxGeometry>
        </mxCell>
        <mxCell id="Mgyk64NdSJGYaR96-P3A-11" value="是否成功&lt;br&gt;是否有账号信息" style="rhombus;whiteSpace=wrap;html=1;rounded=1;shadow=1;" vertex="1" parent="1">
          <mxGeometry x="540" y="1004" width="80" height="80" as="geometry" />
        </mxCell>
        <mxCell id="Mgyk64NdSJGYaR96-P3A-40" value="" style="edgeStyle=orthogonalEdgeStyle;rounded=0;orthogonalLoop=1;jettySize=auto;html=1;" edge="1" parent="1" source="Mgyk64NdSJGYaR96-P3A-12" target="Mgyk64NdSJGYaR96-P3A-11">
          <mxGeometry relative="1" as="geometry" />
        </mxCell>
        <mxCell id="Mgyk64NdSJGYaR96-P3A-12" value="读者页面" style="whiteSpace=wrap;html=1;aspect=fixed;rounded=1;shadow=1;" vertex="1" parent="1">
          <mxGeometry x="695" y="1004" width="80" height="80" as="geometry" />
        </mxCell>
        <mxCell id="Mgyk64NdSJGYaR96-P3A-14" value="提交所填内容" style="text;html=1;align=center;verticalAlign=middle;resizable=0;points=[];autosize=1;strokeColor=none;fillColor=none;" vertex="1" parent="1">
          <mxGeometry x="146" y="1050" width="82" height="18" as="geometry" />
        </mxCell>
        <mxCell id="Mgyk64NdSJGYaR96-P3A-41" value="账号信息存进seesion" style="edgeLabel;html=1;align=center;verticalAlign=middle;resizable=0;points=[];" vertex="1" connectable="0" parent="1">
          <mxGeometry x="531.5" y="1050" as="geometry">
            <mxPoint x="145" y="-20" as="offset" />
          </mxGeometry>
        </mxCell>
        <mxCell id="Mgyk64NdSJGYaR96-P3A-42" value="ajax异步请求" style="text;html=1;align=center;verticalAlign=middle;resizable=0;points=[];autosize=1;strokeColor=none;fillColor=none;" vertex="1" parent="1">
          <mxGeometry x="283" y="1048" width="80" height="18" as="geometry" />
        </mxCell>
        <mxCell id="Mgyk64NdSJGYaR96-P3A-43" value="" style="edgeStyle=orthogonalEdgeStyle;rounded=0;orthogonalLoop=1;jettySize=auto;html=1;" edge="1" parent="1" source="Mgyk64NdSJGYaR96-P3A-44">
          <mxGeometry relative="1" as="geometry">
            <mxPoint x="201.5" y="887" as="targetPoint" />
          </mxGeometry>
        </mxCell>
        <mxCell id="Mgyk64NdSJGYaR96-P3A-44" value="查询.jsp" style="whiteSpace=wrap;html=1;aspect=fixed;rounded=1;shadow=1;" vertex="1" parent="1">
          <mxGeometry x="64" y="847" width="80" height="80" as="geometry" />
        </mxCell>
        <mxCell id="Mgyk64NdSJGYaR96-P3A-45" style="edgeStyle=orthogonalEdgeStyle;rounded=0;orthogonalLoop=1;jettySize=auto;html=1;" edge="1" parent="1" target="Mgyk64NdSJGYaR96-P3A-51">
          <mxGeometry relative="1" as="geometry">
            <mxPoint x="281.5" y="887" as="sourcePoint" />
          </mxGeometry>
        </mxCell>
        <mxCell id="Mgyk64NdSJGYaR96-P3A-47" style="edgeStyle=orthogonalEdgeStyle;rounded=0;orthogonalLoop=1;jettySize=auto;html=1;" edge="1" parent="1" source="Mgyk64NdSJGYaR96-P3A-51" target="Mgyk64NdSJGYaR96-P3A-56">
          <mxGeometry relative="1" as="geometry" />
        </mxCell>
        <mxCell id="Mgyk64NdSJGYaR96-P3A-48" value="执行数据库操作" style="edgeLabel;html=1;align=center;verticalAlign=middle;resizable=0;points=[];" vertex="1" connectable="0" parent="Mgyk64NdSJGYaR96-P3A-47">
          <mxGeometry x="-0.2115" y="-1" relative="1" as="geometry">
            <mxPoint x="6" y="-1" as="offset" />
          </mxGeometry>
        </mxCell>
        <mxCell id="Mgyk64NdSJGYaR96-P3A-51" value="查询处理.java&lt;br&gt;（servlet）" style="whiteSpace=wrap;html=1;aspect=fixed;rounded=1;shadow=1;" vertex="1" parent="1">
          <mxGeometry x="344.5" y="847" width="80" height="80" as="geometry" />
        </mxCell>
        <mxCell id="Mgyk64NdSJGYaR96-P3A-52" style="edgeStyle=orthogonalEdgeStyle;rounded=0;orthogonalLoop=1;jettySize=auto;html=1;" edge="1" parent="1" target="Mgyk64NdSJGYaR96-P3A-58">
          <mxGeometry relative="1" as="geometry">
            <mxPoint x="616.5" y="887" as="sourcePoint" />
            <Array as="points">
              <mxPoint x="616.5" y="887" />
              <mxPoint x="616.5" y="887" />
            </Array>
          </mxGeometry>
        </mxCell>
        <mxCell id="Mgyk64NdSJGYaR96-P3A-53" style="edgeStyle=orthogonalEdgeStyle;rounded=0;orthogonalLoop=1;jettySize=auto;html=1;entryX=0.481;entryY=-0.025;entryDx=0;entryDy=0;entryPerimeter=0;" edge="1" parent="1" source="Mgyk64NdSJGYaR96-P3A-56" target="Mgyk64NdSJGYaR96-P3A-44">
          <mxGeometry relative="1" as="geometry">
            <mxPoint x="98.5" y="806" as="targetPoint" />
            <Array as="points">
              <mxPoint x="568.5" y="823" />
              <mxPoint x="102.5" y="823" />
            </Array>
          </mxGeometry>
        </mxCell>
        <mxCell id="Mgyk64NdSJGYaR96-P3A-54" value="失败" style="edgeLabel;html=1;align=center;verticalAlign=middle;resizable=0;points=[];" vertex="1" connectable="0" parent="Mgyk64NdSJGYaR96-P3A-53">
          <mxGeometry x="-0.1131" y="-1" relative="1" as="geometry">
            <mxPoint as="offset" />
          </mxGeometry>
        </mxCell>
        <mxCell id="Mgyk64NdSJGYaR96-P3A-55" value="" style="edgeStyle=orthogonalEdgeStyle;rounded=0;orthogonalLoop=1;jettySize=auto;html=1;" edge="1" parent="1" source="Mgyk64NdSJGYaR96-P3A-56" target="Mgyk64NdSJGYaR96-P3A-58">
          <mxGeometry relative="1" as="geometry">
            <Array as="points">
              <mxPoint x="629.5" y="887" />
              <mxPoint x="629.5" y="887" />
            </Array>
          </mxGeometry>
        </mxCell>
        <mxCell id="Mgyk64NdSJGYaR96-P3A-56" value="是否成功&lt;br&gt;是否有账号信息" style="rhombus;whiteSpace=wrap;html=1;rounded=1;shadow=1;" vertex="1" parent="1">
          <mxGeometry x="528.5" y="847" width="80" height="80" as="geometry" />
        </mxCell>
        <mxCell id="Mgyk64NdSJGYaR96-P3A-57" value="" style="edgeStyle=orthogonalEdgeStyle;rounded=0;orthogonalLoop=1;jettySize=auto;html=1;" edge="1" parent="1" source="Mgyk64NdSJGYaR96-P3A-58" target="Mgyk64NdSJGYaR96-P3A-56">
          <mxGeometry relative="1" as="geometry" />
        </mxCell>
        <mxCell id="Mgyk64NdSJGYaR96-P3A-58" value="查询结果页面" style="whiteSpace=wrap;html=1;aspect=fixed;rounded=1;shadow=1;" vertex="1" parent="1">
          <mxGeometry x="683.5" y="847" width="80" height="80" as="geometry" />
        </mxCell>
        <mxCell id="Mgyk64NdSJGYaR96-P3A-59" value="提交所填内容" style="text;html=1;align=center;verticalAlign=middle;resizable=0;points=[];autosize=1;strokeColor=none;fillColor=none;" vertex="1" parent="1">
          <mxGeometry x="134.5" y="893" width="82" height="18" as="geometry" />
        </mxCell>
        <mxCell id="Mgyk64NdSJGYaR96-P3A-60" value="处理封装的j&lt;br&gt;son数据并渲染显示" style="edgeLabel;html=1;align=center;verticalAlign=middle;resizable=0;points=[];" vertex="1" connectable="0" parent="1">
          <mxGeometry x="503.5" y="929" as="geometry">
            <mxPoint x="145" y="-20" as="offset" />
          </mxGeometry>
        </mxCell>
        <mxCell id="Mgyk64NdSJGYaR96-P3A-61" value="ajax异步请求" style="text;html=1;align=center;verticalAlign=middle;resizable=0;points=[];autosize=1;strokeColor=none;fillColor=none;" vertex="1" parent="1">
          <mxGeometry x="283.5" y="893" width="80" height="18" as="geometry" />
        </mxCell>
        <mxCell id="Mgyk64NdSJGYaR96-P3A-62" value="录入项检验&lt;br&gt;（空-填入默认内容）" style="whiteSpace=wrap;html=1;aspect=fixed;rounded=1;shadow=1;" vertex="1" parent="1">
          <mxGeometry x="204.5" y="849" width="80" height="80" as="geometry" />
        </mxCell>
        <mxCell id="Mgyk64NdSJGYaR96-P3A-89" style="edgeStyle=orthogonalEdgeStyle;rounded=0;orthogonalLoop=1;jettySize=auto;html=1;" edge="1" parent="1" source="Mgyk64NdSJGYaR96-P3A-65" target="Mgyk64NdSJGYaR96-P3A-81">
          <mxGeometry relative="1" as="geometry" />
        </mxCell>
        <mxCell id="Mgyk64NdSJGYaR96-P3A-65" value="还书.jsp" style="whiteSpace=wrap;html=1;aspect=fixed;rounded=1;shadow=1;" vertex="1" parent="1">
          <mxGeometry x="212" y="1240" width="80" height="80" as="geometry" />
        </mxCell>
        <mxCell id="Mgyk64NdSJGYaR96-P3A-70" style="edgeStyle=orthogonalEdgeStyle;rounded=0;orthogonalLoop=1;jettySize=auto;html=1;" edge="1" parent="1" target="Mgyk64NdSJGYaR96-P3A-76">
          <mxGeometry relative="1" as="geometry">
            <mxPoint x="609.5" y="1292" as="sourcePoint" />
            <Array as="points">
              <mxPoint x="609.5" y="1292" />
              <mxPoint x="609.5" y="1292" />
            </Array>
          </mxGeometry>
        </mxCell>
        <mxCell id="Mgyk64NdSJGYaR96-P3A-73" value="" style="edgeStyle=orthogonalEdgeStyle;rounded=0;orthogonalLoop=1;jettySize=auto;html=1;" edge="1" parent="1" target="Mgyk64NdSJGYaR96-P3A-76">
          <mxGeometry relative="1" as="geometry">
            <Array as="points">
              <mxPoint x="622.5" y="1292" />
              <mxPoint x="622.5" y="1292" />
            </Array>
            <mxPoint x="601.5" y="1292" as="sourcePoint" />
          </mxGeometry>
        </mxCell>
        <mxCell id="Mgyk64NdSJGYaR96-P3A-75" value="" style="edgeStyle=orthogonalEdgeStyle;rounded=0;orthogonalLoop=1;jettySize=auto;html=1;" edge="1" parent="1" source="Mgyk64NdSJGYaR96-P3A-76">
          <mxGeometry relative="1" as="geometry">
            <mxPoint x="601.5" y="1292" as="targetPoint" />
          </mxGeometry>
        </mxCell>
        <mxCell id="Mgyk64NdSJGYaR96-P3A-76" value="查询结果页面" style="whiteSpace=wrap;html=1;aspect=fixed;rounded=1;shadow=1;" vertex="1" parent="1">
          <mxGeometry x="676.5" y="1252" width="80" height="80" as="geometry" />
        </mxCell>
        <mxCell id="Mgyk64NdSJGYaR96-P3A-77" value="提交图书编号" style="text;html=1;align=center;verticalAlign=middle;resizable=0;points=[];autosize=1;strokeColor=none;fillColor=none;" vertex="1" parent="1">
          <mxGeometry x="248" y="1325" width="82" height="18" as="geometry" />
        </mxCell>
        <mxCell id="Mgyk64NdSJGYaR96-P3A-78" value="处理封装的j&lt;br&gt;son数据并渲染显示" style="edgeLabel;html=1;align=center;verticalAlign=middle;resizable=0;points=[];" vertex="1" connectable="0" parent="1">
          <mxGeometry x="496.5" y="1334" as="geometry">
            <mxPoint x="145" y="-20" as="offset" />
          </mxGeometry>
        </mxCell>
        <mxCell id="Mgyk64NdSJGYaR96-P3A-91" value="" style="edgeStyle=orthogonalEdgeStyle;rounded=0;orthogonalLoop=1;jettySize=auto;html=1;" edge="1" parent="1" source="Mgyk64NdSJGYaR96-P3A-81" target="Mgyk64NdSJGYaR96-P3A-84">
          <mxGeometry relative="1" as="geometry" />
        </mxCell>
        <mxCell id="Mgyk64NdSJGYaR96-P3A-92" style="edgeStyle=orthogonalEdgeStyle;rounded=0;orthogonalLoop=1;jettySize=auto;html=1;entryX=0.025;entryY=0.513;entryDx=0;entryDy=0;entryPerimeter=0;" edge="1" parent="1" source="Mgyk64NdSJGYaR96-P3A-81" target="Mgyk64NdSJGYaR96-P3A-65">
          <mxGeometry relative="1" as="geometry">
            <mxPoint x="168" y="1280" as="targetPoint" />
            <Array as="points">
              <mxPoint x="168" y="1388" />
              <mxPoint x="168" y="1281" />
            </Array>
          </mxGeometry>
        </mxCell>
        <mxCell id="Mgyk64NdSJGYaR96-P3A-81" value="是否图书已借出或存在" style="rhombus;whiteSpace=wrap;html=1;rounded=1;shadow=1;" vertex="1" parent="1">
          <mxGeometry x="207.5" y="1343" width="89" height="89" as="geometry" />
        </mxCell>
        <mxCell id="Mgyk64NdSJGYaR96-P3A-98" style="edgeStyle=orthogonalEdgeStyle;rounded=0;orthogonalLoop=1;jettySize=auto;html=1;entryX=0.469;entryY=0;entryDx=0;entryDy=0;entryPerimeter=0;" edge="1" parent="1" source="Mgyk64NdSJGYaR96-P3A-84" target="Mgyk64NdSJGYaR96-P3A-97">
          <mxGeometry relative="1" as="geometry">
            <mxPoint x="119" y="1511.5" as="targetPoint" />
          </mxGeometry>
        </mxCell>
        <mxCell id="Mgyk64NdSJGYaR96-P3A-102" style="edgeStyle=orthogonalEdgeStyle;rounded=0;orthogonalLoop=1;jettySize=auto;html=1;" edge="1" parent="1" source="Mgyk64NdSJGYaR96-P3A-84" target="Mgyk64NdSJGYaR96-P3A-101">
          <mxGeometry relative="1" as="geometry">
            <mxPoint x="390" y="1511.5" as="targetPoint" />
          </mxGeometry>
        </mxCell>
        <mxCell id="Mgyk64NdSJGYaR96-P3A-84" value="是否图书到期未归还" style="rhombus;whiteSpace=wrap;html=1;rounded=1;shadow=1;" vertex="1" parent="1">
          <mxGeometry x="207.5" y="1467" width="89" height="89" as="geometry" />
        </mxCell>
        <mxCell id="Mgyk64NdSJGYaR96-P3A-88" value="还书.jsp" style="whiteSpace=wrap;html=1;aspect=fixed;rounded=1;shadow=1;" vertex="1" parent="1">
          <mxGeometry x="613" y="1476" width="80" height="80" as="geometry" />
        </mxCell>
        <mxCell id="Mgyk64NdSJGYaR96-P3A-93" value="失败" style="text;html=1;align=center;verticalAlign=middle;resizable=0;points=[];autosize=1;strokeColor=none;fillColor=none;" vertex="1" parent="1">
          <mxGeometry x="166" y="1315" width="34" height="18" as="geometry" />
        </mxCell>
        <mxCell id="Mgyk64NdSJGYaR96-P3A-97" value="&lt;p class=&quot;MsoNormal&quot;&gt;&lt;span style=&quot;font-size: 10.5000pt&quot;&gt;&lt;font face=&quot;宋体&quot;&gt;显示逾期信息所要交的罚款&lt;/font&gt;&lt;/span&gt;&lt;/p&gt;" style="whiteSpace=wrap;html=1;aspect=fixed;rounded=1;shadow=1;" vertex="1" parent="1">
          <mxGeometry x="96" y="1556" width="80" height="80" as="geometry" />
        </mxCell>
        <mxCell id="Mgyk64NdSJGYaR96-P3A-99" value="已逾期" style="text;html=1;align=center;verticalAlign=middle;resizable=0;points=[];autosize=1;strokeColor=none;fillColor=none;" vertex="1" parent="1">
          <mxGeometry x="127" y="1496" width="46" height="18" as="geometry" />
        </mxCell>
        <mxCell id="Mgyk64NdSJGYaR96-P3A-104" style="edgeStyle=orthogonalEdgeStyle;rounded=0;orthogonalLoop=1;jettySize=auto;html=1;entryX=0.463;entryY=-0.012;entryDx=0;entryDy=0;entryPerimeter=0;startFill=1;endFill=1;anchorPointDirection=1;" edge="1" parent="1">
          <mxGeometry relative="1" as="geometry">
            <mxPoint x="265.03999999999996" y="1709.04" as="targetPoint" />
            <mxPoint x="384" y="1635" as="sourcePoint" />
            <Array as="points">
              <mxPoint x="384" y="1681" />
              <mxPoint x="265" y="1681" />
            </Array>
          </mxGeometry>
        </mxCell>
        <mxCell id="Mgyk64NdSJGYaR96-P3A-101" value="显示图书编号截止日期和归还日期" style="whiteSpace=wrap;html=1;aspect=fixed;rounded=1;shadow=1;" vertex="1" parent="1">
          <mxGeometry x="337.5" y="1559" width="80" height="80" as="geometry" />
        </mxCell>
        <mxCell id="Mgyk64NdSJGYaR96-P3A-103" value="未逾期" style="text;html=1;align=center;verticalAlign=middle;resizable=0;points=[];autosize=1;strokeColor=none;fillColor=none;" vertex="1" parent="1">
          <mxGeometry x="317" y="1496" width="46" height="18" as="geometry" />
        </mxCell>
        <mxCell id="Mgyk64NdSJGYaR96-P3A-109" value="&lt;p class=&quot;MsoNormal&quot;&gt;&lt;span style=&quot;font-size: 10.5000pt&quot;&gt;&lt;font face=&quot;宋体&quot;&gt;还书成功&lt;/font&gt;&lt;/span&gt;&lt;/p&gt;" style="whiteSpace=wrap;html=1;aspect=fixed;rounded=1;shadow=1;" vertex="1" parent="1">
          <mxGeometry x="228" y="1714" width="80" height="80" as="geometry" />
        </mxCell>
        <mxCell id="Mgyk64NdSJGYaR96-P3A-114" value="" style="endArrow=none;html=1;rounded=0;" edge="1" parent="1">
          <mxGeometry width="50" height="50" relative="1" as="geometry">
            <mxPoint x="266" y="1681" as="sourcePoint" />
            <mxPoint x="131.5" y="1636" as="targetPoint" />
            <Array as="points">
              <mxPoint x="132" y="1681" />
            </Array>
          </mxGeometry>
        </mxCell>
        <mxCell id="Mgyk64NdSJGYaR96-P3A-115" value="点击还书按钮" style="text;html=1;align=center;verticalAlign=middle;resizable=0;points=[];autosize=1;strokeColor=none;fillColor=none;" vertex="1" parent="1">
          <mxGeometry x="211" y="1661" width="82" height="18" as="geometry" />
        </mxCell>
        <mxCell id="Mgyk64NdSJGYaR96-P3A-116" value="" style="whiteSpace=wrap;html=1;aspect=fixed;rounded=1;shadow=1;" vertex="1" parent="1">
          <mxGeometry x="166" y="2101" width="245" height="245" as="geometry" />
        </mxCell>
        <mxCell id="Mgyk64NdSJGYaR96-P3A-117" value="" style="rounded=0;whiteSpace=wrap;html=1;shadow=1;" vertex="1" parent="1">
          <mxGeometry x="162" y="2176" width="192" height="37" as="geometry" />
        </mxCell>
        <mxCell id="Mgyk64NdSJGYaR96-P3A-118" value="" style="rounded=0;whiteSpace=wrap;html=1;gradientDirection=north;gradientColor=#ffa500;shadow=1;spacingTop=0;perimeterSpacing=20;portConstraintRotation=0;fillColor=#ffcd28;strokeColor=#d79b00;" vertex="1" parent="1">
          <mxGeometry x="142" y="1801" width="436" height="237" as="geometry" />
        </mxCell>
        <mxCell id="Mgyk64NdSJGYaR96-P3A-119" value="Nav.jsp" style="rounded=1;whiteSpace=wrap;html=1;shadow=1;fillColor=#fff2cc;strokeColor=#d6b656;" vertex="1" parent="1">
          <mxGeometry x="147" y="1807" width="416" height="44" as="geometry" />
        </mxCell>
        <mxCell id="Mgyk64NdSJGYaR96-P3A-121" value="Frame.jsp" style="text;html=1;align=center;verticalAlign=middle;resizable=0;points=[];autosize=1;strokeColor=none;fillColor=none;" vertex="1" parent="1">
          <mxGeometry x="324" y="2019" width="63" height="18" as="geometry" />
        </mxCell>
        <mxCell id="Mgyk64NdSJGYaR96-P3A-122" value="Navleft.jsp" style="rounded=1;whiteSpace=wrap;html=1;shadow=1;fillColor=#ffe6cc;strokeColor=#d79b00;" vertex="1" parent="1">
          <mxGeometry x="149" y="1863" width="67" height="168" as="geometry" />
        </mxCell>
        <mxCell id="Mgyk64NdSJGYaR96-P3A-123" value="内容根据左侧按钮调整的jsp页面" style="rounded=1;whiteSpace=wrap;html=1;shadow=1;fillColor=#f5f5f5;fontColor=#333333;strokeColor=#666666;" vertex="1" parent="1">
          <mxGeometry x="234" y="1865" width="336" height="157" as="geometry" />
        </mxCell>
      </root>
    </mxGraphModel>
  </diagram>
</mxfile>
